<mxfile host="app.diagrams.net" modified="2023-08-31T14:06:45.755Z" agent="Mozilla/5.0 (Windows NT 10.0; Win64; x64) AppleWebKit/537.36 (KHTML, like Gecko) Chrome/114.0.0.0 Safari/537.36 OPR/100.0.0.0 (Edition std-1)" etag="2GglHN2Dq3PpXlWqSZ9x" version="21.7.1" type="github">
  <diagram id="C5RBs43oDa-KdzZeNtuy" name="Page-1">
    <mxGraphModel dx="375" dy="656" grid="1" gridSize="10" guides="1" tooltips="1" connect="1" arrows="1" fold="1" page="1" pageScale="1" pageWidth="827" pageHeight="1169" math="0" shadow="0">
      <root>
        <mxCell id="WIyWlLk6GJQsqaUBKTNV-0" />
        <mxCell id="WIyWlLk6GJQsqaUBKTNV-1" parent="WIyWlLk6GJQsqaUBKTNV-0" />
        <mxCell id="WIyWlLk6GJQsqaUBKTNV-2" value="" style="rounded=0;html=1;jettySize=auto;orthogonalLoop=1;fontSize=11;endArrow=block;endFill=0;endSize=8;strokeWidth=1;shadow=0;labelBackgroundColor=none;edgeStyle=orthogonalEdgeStyle;" parent="WIyWlLk6GJQsqaUBKTNV-1" source="WIyWlLk6GJQsqaUBKTNV-3" edge="1">
          <mxGeometry relative="1" as="geometry">
            <mxPoint x="220" y="170" as="targetPoint" />
          </mxGeometry>
        </mxCell>
        <mxCell id="WIyWlLk6GJQsqaUBKTNV-3" value="Start" style="rounded=1;whiteSpace=wrap;html=1;fontSize=12;glass=0;strokeWidth=1;shadow=0;fillColor=#dae8fc;strokeColor=#6c8ebf;" parent="WIyWlLk6GJQsqaUBKTNV-1" vertex="1">
          <mxGeometry x="160" y="80" width="120" height="40" as="geometry" />
        </mxCell>
        <mxCell id="uWkVmEuGg1Xg9aMCvQ_A-4" style="edgeStyle=orthogonalEdgeStyle;rounded=0;orthogonalLoop=1;jettySize=auto;html=1;entryX=0.5;entryY=0;entryDx=0;entryDy=0;" edge="1" parent="WIyWlLk6GJQsqaUBKTNV-1" source="uWkVmEuGg1Xg9aMCvQ_A-0" target="uWkVmEuGg1Xg9aMCvQ_A-2">
          <mxGeometry relative="1" as="geometry" />
        </mxCell>
        <mxCell id="uWkVmEuGg1Xg9aMCvQ_A-0" value="Display text &quot;What is your temperature in C" style="shape=parallelogram;perimeter=parallelogramPerimeter;whiteSpace=wrap;html=1;fixedSize=1;fillColor=#f8cecc;strokeColor=#b85450;" vertex="1" parent="WIyWlLk6GJQsqaUBKTNV-1">
          <mxGeometry x="135" y="170" width="170" height="80" as="geometry" />
        </mxCell>
        <mxCell id="uWkVmEuGg1Xg9aMCvQ_A-6" style="edgeStyle=orthogonalEdgeStyle;rounded=0;orthogonalLoop=1;jettySize=auto;html=1;entryX=0.5;entryY=0;entryDx=0;entryDy=0;" edge="1" parent="WIyWlLk6GJQsqaUBKTNV-1" source="uWkVmEuGg1Xg9aMCvQ_A-2" target="uWkVmEuGg1Xg9aMCvQ_A-5">
          <mxGeometry relative="1" as="geometry" />
        </mxCell>
        <mxCell id="uWkVmEuGg1Xg9aMCvQ_A-2" value="Get response from user&lt;br&gt;(startTemp)" style="shape=parallelogram;perimeter=parallelogramPerimeter;whiteSpace=wrap;html=1;fixedSize=1;fillColor=#e1d5e7;strokeColor=#9673a6;" vertex="1" parent="WIyWlLk6GJQsqaUBKTNV-1">
          <mxGeometry x="140" y="290" width="160" height="60" as="geometry" />
        </mxCell>
        <mxCell id="uWkVmEuGg1Xg9aMCvQ_A-8" style="edgeStyle=orthogonalEdgeStyle;rounded=0;orthogonalLoop=1;jettySize=auto;html=1;entryX=0.5;entryY=0;entryDx=0;entryDy=0;" edge="1" parent="WIyWlLk6GJQsqaUBKTNV-1" source="uWkVmEuGg1Xg9aMCvQ_A-5" target="uWkVmEuGg1Xg9aMCvQ_A-7">
          <mxGeometry relative="1" as="geometry" />
        </mxCell>
        <mxCell id="uWkVmEuGg1Xg9aMCvQ_A-5" value="Display text &quot;Would you like to convert to Fahrenheit or Kelvin&lt;br&gt;[0] or [1]&quot;" style="shape=parallelogram;perimeter=parallelogramPerimeter;whiteSpace=wrap;html=1;fixedSize=1;fillColor=#f8cecc;strokeColor=#b85450;" vertex="1" parent="WIyWlLk6GJQsqaUBKTNV-1">
          <mxGeometry x="122.5" y="390" width="195" height="80" as="geometry" />
        </mxCell>
        <mxCell id="uWkVmEuGg1Xg9aMCvQ_A-10" style="edgeStyle=orthogonalEdgeStyle;rounded=0;orthogonalLoop=1;jettySize=auto;html=1;" edge="1" parent="WIyWlLk6GJQsqaUBKTNV-1" source="uWkVmEuGg1Xg9aMCvQ_A-7" target="uWkVmEuGg1Xg9aMCvQ_A-9">
          <mxGeometry relative="1" as="geometry" />
        </mxCell>
        <mxCell id="uWkVmEuGg1Xg9aMCvQ_A-7" value="Get response from user&lt;br&gt;(whichTemp)" style="shape=parallelogram;perimeter=parallelogramPerimeter;whiteSpace=wrap;html=1;fixedSize=1;fillColor=#e1d5e7;strokeColor=#9673a6;" vertex="1" parent="WIyWlLk6GJQsqaUBKTNV-1">
          <mxGeometry x="140" y="510" width="160" height="60" as="geometry" />
        </mxCell>
        <mxCell id="uWkVmEuGg1Xg9aMCvQ_A-12" style="edgeStyle=orthogonalEdgeStyle;rounded=0;orthogonalLoop=1;jettySize=auto;html=1;" edge="1" parent="WIyWlLk6GJQsqaUBKTNV-1" source="uWkVmEuGg1Xg9aMCvQ_A-9">
          <mxGeometry relative="1" as="geometry">
            <mxPoint x="320" y="400" as="targetPoint" />
          </mxGeometry>
        </mxCell>
        <mxCell id="uWkVmEuGg1Xg9aMCvQ_A-17" style="edgeStyle=orthogonalEdgeStyle;rounded=0;orthogonalLoop=1;jettySize=auto;html=1;entryX=0.5;entryY=0;entryDx=0;entryDy=0;" edge="1" parent="WIyWlLk6GJQsqaUBKTNV-1" source="uWkVmEuGg1Xg9aMCvQ_A-9" target="uWkVmEuGg1Xg9aMCvQ_A-16">
          <mxGeometry relative="1" as="geometry" />
        </mxCell>
        <mxCell id="uWkVmEuGg1Xg9aMCvQ_A-9" value="Is whichTemp 0 or 1" style="rhombus;whiteSpace=wrap;html=1;fillColor=#ffe6cc;strokeColor=#d79b00;" vertex="1" parent="WIyWlLk6GJQsqaUBKTNV-1">
          <mxGeometry x="150" y="585" width="140" height="80" as="geometry" />
        </mxCell>
        <mxCell id="uWkVmEuGg1Xg9aMCvQ_A-11" value="No" style="text;html=1;align=center;verticalAlign=middle;resizable=0;points=[];autosize=1;strokeColor=none;fillColor=none;" vertex="1" parent="WIyWlLk6GJQsqaUBKTNV-1">
          <mxGeometry x="280" y="588" width="40" height="30" as="geometry" />
        </mxCell>
        <mxCell id="uWkVmEuGg1Xg9aMCvQ_A-14" value="Yes" style="text;html=1;align=center;verticalAlign=middle;resizable=0;points=[];autosize=1;strokeColor=none;fillColor=none;" vertex="1" parent="WIyWlLk6GJQsqaUBKTNV-1">
          <mxGeometry x="170" y="658" width="40" height="30" as="geometry" />
        </mxCell>
        <mxCell id="uWkVmEuGg1Xg9aMCvQ_A-18" style="edgeStyle=orthogonalEdgeStyle;rounded=0;orthogonalLoop=1;jettySize=auto;html=1;" edge="1" parent="WIyWlLk6GJQsqaUBKTNV-1" source="uWkVmEuGg1Xg9aMCvQ_A-16">
          <mxGeometry relative="1" as="geometry">
            <mxPoint x="350" y="820" as="targetPoint" />
          </mxGeometry>
        </mxCell>
        <mxCell id="uWkVmEuGg1Xg9aMCvQ_A-19" style="edgeStyle=orthogonalEdgeStyle;rounded=0;orthogonalLoop=1;jettySize=auto;html=1;" edge="1" parent="WIyWlLk6GJQsqaUBKTNV-1" source="uWkVmEuGg1Xg9aMCvQ_A-16">
          <mxGeometry relative="1" as="geometry">
            <mxPoint x="70" y="830" as="targetPoint" />
          </mxGeometry>
        </mxCell>
        <mxCell id="uWkVmEuGg1Xg9aMCvQ_A-16" value="If whichTemp is 0" style="rhombus;whiteSpace=wrap;html=1;fillColor=#ffe6cc;strokeColor=#d79b00;" vertex="1" parent="WIyWlLk6GJQsqaUBKTNV-1">
          <mxGeometry x="150" y="688" width="140" height="80" as="geometry" />
        </mxCell>
        <mxCell id="uWkVmEuGg1Xg9aMCvQ_A-21" style="edgeStyle=orthogonalEdgeStyle;rounded=0;orthogonalLoop=1;jettySize=auto;html=1;" edge="1" parent="WIyWlLk6GJQsqaUBKTNV-1" source="uWkVmEuGg1Xg9aMCvQ_A-20">
          <mxGeometry relative="1" as="geometry">
            <mxPoint x="75" y="930" as="targetPoint" />
          </mxGeometry>
        </mxCell>
        <mxCell id="uWkVmEuGg1Xg9aMCvQ_A-20" value="Apply startTemp * 9/5" style="rounded=0;whiteSpace=wrap;html=1;fillColor=#dae8fc;strokeColor=#6c8ebf;" vertex="1" parent="WIyWlLk6GJQsqaUBKTNV-1">
          <mxGeometry x="15" y="830" width="120" height="60" as="geometry" />
        </mxCell>
        <mxCell id="uWkVmEuGg1Xg9aMCvQ_A-26" style="edgeStyle=orthogonalEdgeStyle;rounded=0;orthogonalLoop=1;jettySize=auto;html=1;entryX=0.5;entryY=0;entryDx=0;entryDy=0;" edge="1" parent="WIyWlLk6GJQsqaUBKTNV-1" source="uWkVmEuGg1Xg9aMCvQ_A-23" target="uWkVmEuGg1Xg9aMCvQ_A-25">
          <mxGeometry relative="1" as="geometry" />
        </mxCell>
        <mxCell id="uWkVmEuGg1Xg9aMCvQ_A-23" value="Apply startTemp + 32" style="rounded=0;whiteSpace=wrap;html=1;fillColor=#dae8fc;strokeColor=#6c8ebf;" vertex="1" parent="WIyWlLk6GJQsqaUBKTNV-1">
          <mxGeometry x="15" y="930" width="120" height="60" as="geometry" />
        </mxCell>
        <mxCell id="uWkVmEuGg1Xg9aMCvQ_A-29" style="edgeStyle=orthogonalEdgeStyle;rounded=0;orthogonalLoop=1;jettySize=auto;html=1;entryX=0.465;entryY=0.009;entryDx=0;entryDy=0;entryPerimeter=0;" edge="1" parent="WIyWlLk6GJQsqaUBKTNV-1" source="uWkVmEuGg1Xg9aMCvQ_A-24" target="uWkVmEuGg1Xg9aMCvQ_A-28">
          <mxGeometry relative="1" as="geometry" />
        </mxCell>
        <mxCell id="uWkVmEuGg1Xg9aMCvQ_A-24" value="Apply startTemp + 273.15" style="rounded=0;whiteSpace=wrap;html=1;fillColor=#dae8fc;strokeColor=#6c8ebf;" vertex="1" parent="WIyWlLk6GJQsqaUBKTNV-1">
          <mxGeometry x="290" y="820" width="120" height="60" as="geometry" />
        </mxCell>
        <mxCell id="uWkVmEuGg1Xg9aMCvQ_A-25" value="&lt;font color=&quot;#ffffff&quot;&gt;B&lt;/font&gt;" style="ellipse;whiteSpace=wrap;html=1;fillColor=#000000;strokeColor=#23445d;" vertex="1" parent="WIyWlLk6GJQsqaUBKTNV-1">
          <mxGeometry x="15" y="1020" width="120" height="80" as="geometry" />
        </mxCell>
        <mxCell id="uWkVmEuGg1Xg9aMCvQ_A-28" value="&lt;font color=&quot;#fcfcfc&quot;&gt;B&lt;/font&gt;" style="ellipse;whiteSpace=wrap;html=1;fillColor=#000000;strokeColor=#23445d;" vertex="1" parent="WIyWlLk6GJQsqaUBKTNV-1">
          <mxGeometry x="290" y="900" width="120" height="80" as="geometry" />
        </mxCell>
        <mxCell id="uWkVmEuGg1Xg9aMCvQ_A-40" style="edgeStyle=orthogonalEdgeStyle;rounded=0;orthogonalLoop=1;jettySize=auto;html=1;entryX=0.5;entryY=0;entryDx=0;entryDy=0;" edge="1" parent="WIyWlLk6GJQsqaUBKTNV-1" source="uWkVmEuGg1Xg9aMCvQ_A-30" target="uWkVmEuGg1Xg9aMCvQ_A-35">
          <mxGeometry relative="1" as="geometry" />
        </mxCell>
        <mxCell id="uWkVmEuGg1Xg9aMCvQ_A-30" value="&lt;font color=&quot;#fcfcfc&quot;&gt;B&lt;/font&gt;" style="ellipse;whiteSpace=wrap;html=1;fillColor=#000000;strokeColor=#23445d;" vertex="1" parent="WIyWlLk6GJQsqaUBKTNV-1">
          <mxGeometry x="490" y="80" width="120" height="80" as="geometry" />
        </mxCell>
        <mxCell id="uWkVmEuGg1Xg9aMCvQ_A-46" style="edgeStyle=orthogonalEdgeStyle;rounded=0;orthogonalLoop=1;jettySize=auto;html=1;entryX=0.5;entryY=0;entryDx=0;entryDy=0;" edge="1" parent="WIyWlLk6GJQsqaUBKTNV-1" source="uWkVmEuGg1Xg9aMCvQ_A-31" target="uWkVmEuGg1Xg9aMCvQ_A-45">
          <mxGeometry relative="1" as="geometry" />
        </mxCell>
        <mxCell id="uWkVmEuGg1Xg9aMCvQ_A-31" value="Display text saying&amp;nbsp;“Your new temperature is:” + startTemp&amp;nbsp; + tempText" style="shape=parallelogram;perimeter=parallelogramPerimeter;whiteSpace=wrap;html=1;fixedSize=1;fillColor=#f8cecc;strokeColor=#b85450;" vertex="1" parent="WIyWlLk6GJQsqaUBKTNV-1">
          <mxGeometry x="447.5" y="505" width="205" height="80" as="geometry" />
        </mxCell>
        <mxCell id="uWkVmEuGg1Xg9aMCvQ_A-34" style="edgeStyle=orthogonalEdgeStyle;rounded=0;orthogonalLoop=1;jettySize=auto;html=1;exitX=0;exitY=0.5;exitDx=0;exitDy=0;entryX=0.117;entryY=0.404;entryDx=0;entryDy=0;entryPerimeter=0;" edge="1" parent="WIyWlLk6GJQsqaUBKTNV-1" source="uWkVmEuGg1Xg9aMCvQ_A-9" target="uWkVmEuGg1Xg9aMCvQ_A-9">
          <mxGeometry relative="1" as="geometry" />
        </mxCell>
        <mxCell id="uWkVmEuGg1Xg9aMCvQ_A-36" style="edgeStyle=orthogonalEdgeStyle;rounded=0;orthogonalLoop=1;jettySize=auto;html=1;" edge="1" parent="WIyWlLk6GJQsqaUBKTNV-1" source="uWkVmEuGg1Xg9aMCvQ_A-35">
          <mxGeometry relative="1" as="geometry">
            <mxPoint x="430" y="360" as="targetPoint" />
          </mxGeometry>
        </mxCell>
        <mxCell id="uWkVmEuGg1Xg9aMCvQ_A-37" style="edgeStyle=orthogonalEdgeStyle;rounded=0;orthogonalLoop=1;jettySize=auto;html=1;" edge="1" parent="WIyWlLk6GJQsqaUBKTNV-1" source="uWkVmEuGg1Xg9aMCvQ_A-35">
          <mxGeometry relative="1" as="geometry">
            <mxPoint x="680" y="360" as="targetPoint" />
          </mxGeometry>
        </mxCell>
        <mxCell id="uWkVmEuGg1Xg9aMCvQ_A-35" value="If whichTemp is 0" style="rhombus;whiteSpace=wrap;html=1;fillColor=#ffe6cc;strokeColor=#d79b00;" vertex="1" parent="WIyWlLk6GJQsqaUBKTNV-1">
          <mxGeometry x="480" y="240" width="140" height="80" as="geometry" />
        </mxCell>
        <mxCell id="uWkVmEuGg1Xg9aMCvQ_A-43" style="edgeStyle=orthogonalEdgeStyle;rounded=0;orthogonalLoop=1;jettySize=auto;html=1;" edge="1" parent="WIyWlLk6GJQsqaUBKTNV-1" source="uWkVmEuGg1Xg9aMCvQ_A-38" target="uWkVmEuGg1Xg9aMCvQ_A-31">
          <mxGeometry relative="1" as="geometry" />
        </mxCell>
        <mxCell id="uWkVmEuGg1Xg9aMCvQ_A-38" value="make tempText equal &quot;F&quot;" style="rounded=0;whiteSpace=wrap;html=1;fillColor=#dae8fc;strokeColor=#6c8ebf;" vertex="1" parent="WIyWlLk6GJQsqaUBKTNV-1">
          <mxGeometry x="370" y="360" width="120" height="60" as="geometry" />
        </mxCell>
        <mxCell id="uWkVmEuGg1Xg9aMCvQ_A-44" style="edgeStyle=orthogonalEdgeStyle;rounded=0;orthogonalLoop=1;jettySize=auto;html=1;" edge="1" parent="WIyWlLk6GJQsqaUBKTNV-1" source="uWkVmEuGg1Xg9aMCvQ_A-39" target="uWkVmEuGg1Xg9aMCvQ_A-31">
          <mxGeometry relative="1" as="geometry" />
        </mxCell>
        <mxCell id="uWkVmEuGg1Xg9aMCvQ_A-39" value="make tempText equal &quot;K&quot;" style="rounded=0;whiteSpace=wrap;html=1;fillColor=#dae8fc;strokeColor=#6c8ebf;" vertex="1" parent="WIyWlLk6GJQsqaUBKTNV-1">
          <mxGeometry x="620" y="360" width="120" height="60" as="geometry" />
        </mxCell>
        <mxCell id="uWkVmEuGg1Xg9aMCvQ_A-41" value="No" style="text;html=1;align=center;verticalAlign=middle;resizable=0;points=[];autosize=1;strokeColor=none;fillColor=none;" vertex="1" parent="WIyWlLk6GJQsqaUBKTNV-1">
          <mxGeometry x="600" y="248" width="40" height="30" as="geometry" />
        </mxCell>
        <mxCell id="uWkVmEuGg1Xg9aMCvQ_A-42" value="Yes" style="text;html=1;align=center;verticalAlign=middle;resizable=0;points=[];autosize=1;strokeColor=none;fillColor=none;" vertex="1" parent="WIyWlLk6GJQsqaUBKTNV-1">
          <mxGeometry x="460" y="238" width="40" height="30" as="geometry" />
        </mxCell>
        <mxCell id="uWkVmEuGg1Xg9aMCvQ_A-45" value="End/Stop" style="rounded=1;whiteSpace=wrap;html=1;fontSize=12;glass=0;strokeWidth=1;shadow=0;fillColor=#dae8fc;strokeColor=#6c8ebf;" vertex="1" parent="WIyWlLk6GJQsqaUBKTNV-1">
          <mxGeometry x="490" y="618" width="120" height="40" as="geometry" />
        </mxCell>
      </root>
    </mxGraphModel>
  </diagram>
</mxfile>
